<svg width="18" height="18" viewBox="0 0 18 18" fill="none" xmlns="http://www.w3.org/2000/svg">
<g id="hig/18/arrow right">
<path id="Vector" d="M6.27606 2.21765C6.13702 2.08061 5.95706 2 5.74438 2C5.319 2 5 2.31435 5 2.73348C5 2.93496 5.08177 3.12035 5.21269 3.25736L11.1677 8.99597L5.21269 14.7346C5.08177 14.8716 5 15.065 5 15.2585C5 15.6776 5.319 16 5.74437 16C5.95706 16 6.13702 15.9194 6.27606 15.7824L12.7546 9.53599C12.91 9.40702 13 9.20554 13 8.99597C13 8.7945 12.91 8.6091 12.7546 8.45597L6.27606 2.21765Z" fill="white" fill-opacity="0.7"/>
</g>
</svg>
