<svg width="32" height="32" viewBox="0 0 32 32" fill="none" xmlns="http://www.w3.org/2000/svg">
<g id="&#240;&#159;&#166;&#134; icon &#34;thumb up&#34;">
<path id="Vector" d="M17.4029 2.73216L10.0545 10.0805C9.56372 10.5713 9.28517 11.2478 9.28517 11.9508V25.2017C9.28517 26.6608 10.4789 27.8545 11.938 27.8545H23.8758C24.9369 27.8545 25.8919 27.2179 26.3164 26.2496L30.6405 16.1555C31.7547 13.5292 29.8314 10.6111 26.9796 10.6111H19.4853L20.7454 4.53609C20.8781 3.87288 20.6791 3.19641 20.2016 2.7189C19.419 1.94958 18.1722 1.94958 17.4029 2.73216ZM3.9795 27.8545C5.43856 27.8545 6.63233 26.6608 6.63233 25.2017V14.5903C6.63233 13.1313 5.43856 11.9375 3.9795 11.9375C2.52044 11.9375 1.32666 13.1313 1.32666 14.5903V25.2017C1.32666 26.6608 2.52044 27.8545 3.9795 27.8545Z" fill="#158FFF"/>
</g>
</svg>
