<svg width="32" height="32" viewBox="0 0 32 32" fill="none" xmlns="http://www.w3.org/2000/svg">
<g id="&#240;&#159;&#166;&#134; icon &#34;thumb up&#34;">
<path id="Vector" d="M11.938 27.8545H23.8758C24.9767 27.8545 25.9185 27.1913 26.3164 26.2363L30.3222 16.8851C30.4415 16.58 30.5079 16.2616 30.5079 15.9168V13.2639C30.5079 11.8049 29.3141 10.6111 27.855 10.6111H19.4853L20.7454 4.54937L20.7852 4.12491C20.7852 3.58108 20.5597 3.07704 20.2016 2.71891L18.7956 1.32617L10.0545 10.0673C9.57698 10.5448 9.28517 11.208 9.28517 11.9375V25.2017C9.28517 26.6608 10.4789 27.8545 11.938 27.8545ZM11.938 11.9375L17.6947 6.18086L15.9173 13.2639H27.855V15.9168L23.8758 25.2017H11.938V11.9375ZM1.32666 11.9375H6.63233V27.8545H1.32666V11.9375Z" fill="black"/>
</g>
</svg>
