<svg width="49" height="49" viewBox="0 0 49 49" fill="none" xmlns="http://www.w3.org/2000/svg">
<circle cx="24.5" cy="24.5" r="23" stroke="white" stroke-opacity="0.5" stroke-width="3"/>
<path d="M21.2761 18.2176C21.137 18.0806 20.9571 18 20.7444 18C20.319 18 20 18.3143 20 18.7335C20 18.935 20.0818 19.1204 20.2127 19.2574L26.1677 24.996L20.2127 30.7346C20.0818 30.8716 20 31.065 20 31.2585C20 31.6776 20.319 32 20.7444 32C20.9571 32 21.137 31.9194 21.2761 31.7824L27.7546 25.536C27.91 25.407 28 25.2055 28 24.996C28 24.7945 27.91 24.6091 27.7546 24.456L21.2761 18.2176Z" fill="white" fill-opacity="0.7"/>
</svg>
