<svg width="66" height="66" viewBox="0 0 66 66" fill="none" xmlns="http://www.w3.org/2000/svg">
<g id="Group 54">
<circle id="Ellipse 59" cx="33" cy="33" r="33" fill="white" fill-opacity="0.5"/>
<circle id="Ellipse 44" cx="32.9999" cy="32.9999" r="30.4286" fill="white"/>
<g id="&#240;&#159;&#166;&#134; icon &#34;phone&#34;">
<path id="Vector" d="M46.5093 38.7046L42.0643 38.1971C40.9968 38.0746 39.9468 38.4421 39.1943 39.1946L35.9743 42.4146C31.0218 39.8946 26.9618 35.8521 24.4418 30.8821L27.6793 27.6446C28.4318 26.8921 28.7993 25.8421 28.6768 24.7746L28.1693 20.3646C27.9593 18.5971 26.4718 17.2671 24.6868 17.2671H21.6593C19.6818 17.2671 18.0368 18.9121 18.1593 20.8896C19.0868 35.8346 31.0393 47.7696 45.9668 48.6971C47.9443 48.8196 49.5893 47.1746 49.5893 45.1971V42.1696C49.6068 40.4021 48.2768 38.9146 46.5093 38.7046Z" fill="#4FD866"/>
</g>
</g>
</svg>
