<svg width="66" height="66" viewBox="0 0 66 66" fill="none" xmlns="http://www.w3.org/2000/svg">
<g id="Group 55">
<circle id="Ellipse 59" cx="33" cy="33" r="33" fill="white" fill-opacity="0.5"/>
<circle id="Ellipse 44" cx="32.9999" cy="32.9999" r="30.4286" fill="white"/>
<g id="&#240;&#159;&#166;&#134; icon &#34;phone&#34;">
<path id="Vector" d="M20.8768 37.9129L24.3787 35.1287C25.2202 34.4605 25.7028 33.4582 25.7028 32.394L25.7028 27.8402C30.9867 26.1202 36.716 26.1078 42.0122 27.8402L42.0122 32.4187C42.0122 33.4829 42.4948 34.4852 43.3363 35.1534L46.8135 37.9129C48.2118 39.0142 50.2041 38.9029 51.4662 37.6407L53.607 35.4999C55.0053 34.1016 55.0053 31.7752 53.5204 30.4636C42.2968 20.5517 25.4058 20.5641 14.1946 30.4636C12.7097 31.7752 12.7097 34.1016 14.108 35.4999L16.2488 37.6407C17.4862 38.9029 19.4785 39.0142 20.8768 37.9129Z" fill="#DB332A"/>
</g>
</g>
</svg>
